<svg id="Layer_1" data-name="Layer 1" xmlns="http://www.w3.org/2000/svg" viewBox="0 0 77.57 69.99"><polygon points="77.57 49.41 28.18 49.41 28.18 0 25.8 0 25.8 49.74 0 68.06 1.37 69.99 27.03 51.78 77.57 51.78 77.57 49.41" fill="#006eff"/><path d="M71.09,41.18c0-2.54,2.46-3.45,5.58-3.45H78v-.56c0-1.46-.5-2.18-2-2.18A1.81,1.81,0,0,0,74,36.69H71.53c.21-2.54,2.23-3.6,4.66-3.6s4.34,1,4.34,4v7.13H78.06V42.86a3.78,3.78,0,0,1-3.33,1.54C72.74,44.4,71.09,43.45,71.09,41.18ZM78,40.39V39.31H76.73c-1.91,0-3.14.44-3.14,1.77,0,.91.5,1.51,1.75,1.51C76.87,42.59,78,41.78,78,40.39Z" transform="translate(-5.79 -7.15)" fill="#006eff"/><path d="M6.46,24.52h3.7l3.91,10.15,3.82-10.15h3.66V39.39H18.79V28.16L14.36,39.39h-.89L9,28.16V39.39H6.46Z" transform="translate(-5.79 -7.15)" fill="#006eff"/><path d="M38.11,47.42v-.17a5.28,5.28,0,0,1,5.41-5.61c2.7,0,5.13,1.6,5.13,5.49v.73h-8c.08,2,1.12,3.22,3,3.22,1.52,0,2.31-.61,2.5-1.67h2.43c-.35,2.29-2.2,3.54-5,3.54A5.21,5.21,0,0,1,38.11,47.42Zm8-1.25c-.13-1.87-1.08-2.7-2.64-2.7a2.79,2.79,0,0,0-2.79,2.7Z" transform="translate(-5.79 -7.15)" fill="#006eff"/><path d="M55.12,23.9V18H53.66V16.07h1.46V13.68h2.51v2.39H60V18H57.63v5.72c0,.95.46,1.39,1.25,1.39a3,3,0,0,0,1.23-.21v2a5,5,0,0,1-1.71.27A2.93,2.93,0,0,1,55.12,23.9Z" transform="translate(-5.79 -7.15)" fill="#006eff"  /></svg>