<svg id="Layer_1" data-name="Layer 1" xmlns="http://www.w3.org/2000/svg" viewBox="0 0 124.24 40.38"><defs><style>.cls-1{fill:none;}</style></defs><polygon class="cls-1" points="6.78 40.37 19.03 40.37 6.78 9.88 6.78 40.37" /><path class="cls-1" d="M112.54,44.25h5V40.64A9.72,9.72,0,0,1,112.54,44.25Z" transform="translate(0 -3.88)" fill="#006eff"/><path class="cls-1" d="M117.41,33.92V31h-3.5c-5.2,0-8.53,1.18-8.53,4.8,0,2.48,1.36,4.12,4.75,4.12C114.31,39.91,117.41,37.71,117.41,33.92Z" transform="translate(0 -3.88)" fill="#006eff"/><path class="cls-1" d="M60.89,19.07c-4.13,0-6.89,2.77-7.57,7.34H68.06C67.72,21.33,65.12,19.07,60.89,19.07Z" transform="translate(0 -3.88)" fill="#006eff"/><polygon class="cls-1" points="21.46 40.37 33.49 40.37 33.49 9.88 21.46 40.37" fill="#006eff"/><polygon points="6.78 9.88 19.03 40.37 21.46 40.37 33.49 9.88 33.49 40.37 41 40.37 41 0 31.06 0 20.67 27.56 10.05 0 0 0 0 40.37 6.78 40.37 6.78 9.88" fill="#006eff"/><path d="M74.72,35.22H68.11c-.5,2.88-2.65,4.52-6.77,4.52-5.08,0-7.91-3.17-8.13-8.75H74.83V29c0-10.56-6.6-14.91-13.94-14.91-8.42,0-14.69,6.1-14.69,15.25v.45c0,7.6,4.17,12.79,10.42,14.45h9.49C70.89,43.05,74,40,74.72,35.22ZM60.89,19.07c4.23,0,6.83,2.26,7.17,7.34H53.32C54,21.84,56.76,19.07,60.89,19.07Z" transform="translate(0 -3.88)" fill="#006eff"/><path d="M95.23,44V38.61a8.29,8.29,0,0,1-3.33.56c-2.15,0-3.39-1.18-3.39-3.78V19.86H95V14.72h-6.5V8.23H81.68v6.49h-4v5.14h4V36c0,4.29,1.8,7.14,5.28,8.24h7.61C94.8,44.18,95,44.11,95.23,44Z" transform="translate(0 -3.88)" fill="#006eff"/><path d="M117.52,40.64v3.61h6.72V24.89c0-8.08-5.19-10.79-11.8-10.79S100.36,17,99.79,23.87h6.61c.34-2.93,2.09-4.63,5.65-4.63,4,0,5.36,2,5.36,5.93v1.52h-3.67c-8.47,0-15.13,2.49-15.13,9.38,0,4.52,2.41,7.12,5.83,8.18h8.1A9.72,9.72,0,0,0,117.52,40.64Zm-12.14-4.85c0-3.62,3.33-4.8,8.53-4.8h3.5v2.93c0,3.79-3.1,6-7.28,6C106.74,39.91,105.38,38.27,105.38,35.79Z" transform="translate(0 -3.88)" fill="#006eff"/><polygon points="19.03 40.38 21.46 40.38 21.46 40.37 19.03 40.37 19.03 40.38" /><rect x="33.49" y="40.37" width="7.51" height="0.01"/><rect y="40.37" width="6.78" height="0.01"/><rect x="117.52" y="40.37" width="6.72" height="0.01"/></svg>