<?xml version="1.0" encoding="UTF-8"?>
<svg width="700pt" height="700pt" version="1.1" viewBox="0 0 700 700" xmlns="http://www.w3.org/2000/svg" xmlns:xlink="http://www.w3.org/1999/xlink">
 <g>
  <path d="m196.95 280c0 40.59 16.125 79.52 44.824 108.22 28.703 28.699 67.633 44.824 108.22 44.824s79.52-16.125 108.22-44.824c28.699-28.703 44.824-67.633 44.824-108.22s-16.125-79.52-44.824-108.22c-28.703-28.699-67.633-44.824-108.22-44.824-40.586 0.015625-79.508 16.145-108.2 44.844-28.699 28.695-44.828 67.617-44.844 108.2zm154.5-112.95c40.871 0 78.641 21.809 99.078 57.207 20.438 35.395 20.438 79.008 0 114.41-20.438 35.398-58.207 57.203-99.078 57.203zm9.7422-71.512v-68.656c0.23438-3.5547-1.0117-7.0469-3.4492-9.6484-2.4336-2.6016-5.8398-4.0781-9.4023-4.0781s-6.9688 1.4766-9.4023 4.0781c-2.4336 2.6016-3.6836 6.0938-3.4492 9.6484v68.656c0.44531 6.7695 6.0664 12.031 12.852 12.031s12.406-5.2617 12.852-12.031zm175.67 13.551v0.003906c4.6836-5.082 4.5234-12.953-0.36328-17.84-4.8828-4.8867-12.754-5.0469-17.836-0.36328l-48.328 48.555c-4.6836 5.0781-4.5234 12.949 0.36328 17.836 4.8867 4.8867 12.758 5.0469 17.836 0.36328zm-2.4062 182.11h68.656c3.5547 0.23438 7.0469-1.0117 9.6484-3.4492 2.6016-2.4336 4.0781-5.8398 4.0781-9.4023s-1.4766-6.9688-4.0781-9.4023c-2.6016-2.4336-6.0938-3.6836-9.6484-3.4492h-68.656c-6.7695 0.44531-12.031 6.0664-12.031 12.852s5.2617 12.406 12.031 12.852zm-62.105 109.14c-2.4258 2.4062-3.7891 5.6836-3.7891 9.1016 0 3.4141 1.3633 6.6914 3.7891 9.0977l48.551 48.551v0.003906c5.043 4.9883 13.16 4.9883 18.203 0 2.4219-2.4102 3.7852-5.6836 3.7852-9.1016 0-3.418-1.3633-6.6914-3.7852-9.1016l-48.555-48.551c-2.4062-2.4258-5.6836-3.7891-9.0977-3.7891-3.418 0-6.6953 1.3633-9.1016 3.7891zm-133.56 64.121v68.656c-0.23438 3.5547 1.0117 7.0469 3.4492 9.6484 2.4336 2.6016 5.8398 4.0781 9.4023 4.0781s6.9688-1.4766 9.4023-4.0781c2.4336-2.6016 3.6836-6.0938 3.4492-9.6484v-68.656c-0.44531-6.7695-6.0664-12.031-12.852-12.031s-12.406 5.2617-12.852 12.031zm-175.9-13.555c-3.6602 3.6914-4.7422 9.2188-2.75 14.02 1.9961 4.7969 6.6836 7.9297 11.879 7.9336 3.4062 0.015625 6.6719-1.3359 9.0742-3.75l48.551-48.551v-0.003906c4.6836-5.0781 4.5234-12.949-0.36328-17.836-4.8867-4.8867-12.758-5.0469-17.836-0.36328zm-78.902-169.45c0.03125 7.0898 5.7891 12.824 12.879 12.824h68.656c6.7695-0.44922 12.031-6.0703 12.031-12.852 0-6.7852-5.2617-12.406-12.031-12.855h-68.656c-3.4141 0-6.6914 1.3594-9.1055 3.7734-2.418 2.418-3.7734 5.6914-3.7734 9.1094zm143.64-121.8c2.4258-2.4062 3.7891-5.6836 3.7891-9.1016 0-3.4141-1.3633-6.6914-3.7891-9.0977l-48.551-48.551v-0.003906c-5.082-4.6797-12.953-4.5195-17.84 0.36328-4.8867 4.8867-5.0469 12.758-0.36328 17.84l48.551 48.551h0.003906c5.0391 4.9883 13.156 4.9883 18.199 0z" fill="#fff"/>
 </g>
</svg>
